<svg width="24" height="25" viewBox="0 0 24 25" fill="none" xmlns="http://www.w3.org/2000/svg">
<path fill-rule="evenodd" clip-rule="evenodd" d="M3 5.32861C3 4.50019 3.67157 3.82861 4.5 3.82861H19.5C20.3284 3.82861 21 4.50019 21 5.32861V20.3286C21 21.157 20.3284 21.8286 19.5 21.8286H4.5C3.67157 21.8286 3 21.157 3 20.3286V5.32861ZM19.5 5.32861H4.5V20.3286H19.5V5.32861Z" fill="#999999"/>
<path fill-rule="evenodd" clip-rule="evenodd" d="M16.5 2.32861C16.9142 2.32861 17.25 2.6644 17.25 3.07861V6.07861C17.25 6.49283 16.9142 6.82861 16.5 6.82861C16.0858 6.82861 15.75 6.49283 15.75 6.07861V3.07861C15.75 2.6644 16.0858 2.32861 16.5 2.32861Z" fill="#999999"/>
<path fill-rule="evenodd" clip-rule="evenodd" d="M7.5 2.32861C7.91421 2.32861 8.25 2.6644 8.25 3.07861V6.07861C8.25 6.49283 7.91421 6.82861 7.5 6.82861C7.08579 6.82861 6.75 6.49283 6.75 6.07861V3.07861C6.75 2.6644 7.08579 2.32861 7.5 2.32861Z" fill="#999999"/>
<path fill-rule="evenodd" clip-rule="evenodd" d="M3 9.07861C3 8.6644 3.33579 8.32861 3.75 8.32861H20.25C20.6642 8.32861 21 8.6644 21 9.07861C21 9.49283 20.6642 9.82861 20.25 9.82861H3.75C3.33579 9.82861 3 9.49283 3 9.07861Z" fill="#999999"/>
</svg>
