<svg width="24" height="25" viewBox="0 0 24 25" fill="none" xmlns="http://www.w3.org/2000/svg">
<path fill-rule="evenodd" clip-rule="evenodd" d="M1.5 21.8286C1.5 21.4144 1.83579 21.0786 2.25 21.0786H21.75C22.1642 21.0786 22.5 21.4144 22.5 21.8286C22.5 22.2428 22.1642 22.5786 21.75 22.5786H2.25C1.83579 22.5786 1.5 22.2428 1.5 21.8286Z" fill="#999999"/>
<path fill-rule="evenodd" clip-rule="evenodd" d="M4.93934 3.51795C5.22064 3.23665 5.60217 3.07861 6 3.07861H18C18.3978 3.07861 18.7794 3.23665 19.0607 3.51795C19.342 3.79926 19.5 4.18079 19.5 4.57861V21.8286C19.5 22.2428 19.1642 22.5786 18.75 22.5786C18.3358 22.5786 18 22.2428 18 21.8286V4.57861L6 4.57861L6 21.8286C6 22.2428 5.66421 22.5786 5.25 22.5786C4.83579 22.5786 4.5 22.2428 4.5 21.8286V4.57861C4.5 4.18079 4.65804 3.79926 4.93934 3.51795Z" fill="#999999"/>
<path d="M14.625 13.9536C15.2463 13.9536 15.75 13.4499 15.75 12.8286C15.75 12.2073 15.2463 11.7036 14.625 11.7036C14.0037 11.7036 13.5 12.2073 13.5 12.8286C13.5 13.4499 14.0037 13.9536 14.625 13.9536Z" fill="#999999"/>
</svg>
