<svg width="24" height="25" viewBox="0 0 24 25" fill="none" xmlns="http://www.w3.org/2000/svg">
<path fill-rule="evenodd" clip-rule="evenodd" d="M11.6471 3.16685C11.8676 3.0492 12.1324 3.0492 12.3529 3.16685L23.6029 9.16685C23.8473 9.29719 24 9.55163 24 9.82861C24 10.1056 23.8473 10.36 23.6029 10.4904L12.3529 16.4904C12.1324 16.608 11.8676 16.608 11.6471 16.4904L0.397059 10.4904C0.152661 10.36 0 10.1056 0 9.82861C0 9.55163 0.152661 9.29719 0.397059 9.16685L11.6471 3.16685ZM2.34375 9.82861L12 14.9786L21.6562 9.82861L12 4.67861L2.34375 9.82861Z" fill="#999999"/>
<path fill-rule="evenodd" clip-rule="evenodd" d="M11.3382 9.47567C11.5332 9.11018 11.9875 8.97192 12.3529 9.16684L17.9779 12.1668C18.2223 12.2972 18.375 12.5516 18.375 12.8286V23.3286C18.375 23.7428 18.0392 24.0786 17.625 24.0786C17.2108 24.0786 16.875 23.7428 16.875 23.3286V13.2786L11.6471 10.4904C11.2816 10.2954 11.1433 9.84115 11.3382 9.47567Z" fill="#999999"/>
<path fill-rule="evenodd" clip-rule="evenodd" d="M3.375 10.4755C3.78921 10.4755 4.125 10.8113 4.125 11.2255V16.3348L4.12664 16.337L4.1266 16.337C4.68281 17.0842 7.14899 19.9536 12 19.9536C16.851 19.9536 19.3172 17.0842 19.8734 16.337L19.875 16.3349V11.2255C19.875 10.8113 20.2108 10.4755 20.625 10.4755C21.0392 10.4755 21.375 10.8113 21.375 11.2255V16.3442L21.375 16.3474C21.3736 16.6684 21.2681 16.9802 21.0743 17.2359C20.3702 18.1804 17.5116 21.4536 12 21.4536C6.48837 21.4536 3.62978 18.1803 2.92573 17.2359C2.73192 16.9801 2.62636 16.6684 2.62501 16.3474L2.62499 16.3442H2.625V11.2255C2.625 10.8113 2.96079 10.4755 3.375 10.4755Z" fill="#999999"/>
</svg>
