<svg width="24" height="25" viewBox="0 0 24 25" fill="none" xmlns="http://www.w3.org/2000/svg">
<path fill-rule="evenodd" clip-rule="evenodd" d="M5 4.41333C4.73478 4.41333 4.48043 4.51869 4.29289 4.70622C4.10536 4.89376 4 5.14811 4 5.41333V19.4133C4 19.6785 4.10536 19.9329 4.29289 20.1204C4.48043 20.308 4.73478 20.4133 5 20.4133H9C9.55228 20.4133 10 20.861 10 21.4133C10 21.9656 9.55228 22.4133 9 22.4133H5C4.20435 22.4133 3.44129 22.0973 2.87868 21.5347C2.31607 20.972 2 20.209 2 19.4133V5.41333C2 4.61768 2.31607 3.85462 2.87868 3.29201C3.44129 2.7294 4.20435 2.41333 5 2.41333H9C9.55228 2.41333 10 2.86105 10 3.41333C10 3.96561 9.55228 4.41333 9 4.41333H5Z" fill="#999999"/>
<path fill-rule="evenodd" clip-rule="evenodd" d="M15.2929 6.70622C15.6834 6.3157 16.3166 6.3157 16.7071 6.70622L21.7071 11.7062C22.0976 12.0967 22.0976 12.7299 21.7071 13.1204L16.7071 18.1204C16.3166 18.511 15.6834 18.511 15.2929 18.1204C14.9024 17.7299 14.9024 17.0967 15.2929 16.7062L19.5858 12.4133L15.2929 8.12044C14.9024 7.72991 14.9024 7.09675 15.2929 6.70622Z" fill="#999999"/>
<path fill-rule="evenodd" clip-rule="evenodd" d="M8 12.4133C8 11.861 8.44772 11.4133 9 11.4133H21C21.5523 11.4133 22 11.861 22 12.4133C22 12.9656 21.5523 13.4133 21 13.4133H9C8.44772 13.4133 8 12.9656 8 12.4133Z" fill="#999999"/>
</svg>
