<svg width="24" height="25" viewBox="0 0 24 25" fill="none" xmlns="http://www.w3.org/2000/svg">
<path fill-rule="evenodd" clip-rule="evenodd" d="M12.1311 9.07861C10.06 9.07861 8.3811 10.7575 8.3811 12.8286C8.3811 14.8997 10.06 16.5786 12.1311 16.5786C14.2022 16.5786 15.8811 14.8997 15.8811 12.8286C15.8811 10.7575 14.2022 9.07861 12.1311 9.07861ZM6.8811 12.8286C6.8811 9.92912 9.23161 7.57861 12.1311 7.57861C15.0306 7.57861 17.3811 9.92912 17.3811 12.8286C17.3811 15.7281 15.0306 18.0786 12.1311 18.0786C9.23161 18.0786 6.8811 15.7281 6.8811 12.8286Z" fill="#999999"/>
<path fill-rule="evenodd" clip-rule="evenodd" d="M8.91948 2.82423C9.12547 2.75774 9.35014 2.78348 9.53575 2.89485L11.7281 4.21025C11.9968 4.19824 12.2659 4.19824 12.5347 4.21027L14.7179 2.90377C14.902 2.79362 15.1244 2.76756 15.3289 2.83218C16.7617 3.28483 18.0789 4.04344 19.1894 5.0555C19.3486 5.20058 19.4378 5.40711 19.4341 5.62247L19.3912 8.17081C19.5393 8.39815 19.6751 8.63321 19.7982 8.87499L22.0206 10.1106C22.2077 10.2146 22.3415 10.3937 22.3881 10.6027C22.7151 12.0671 22.7185 13.5853 22.3982 15.0512C22.3522 15.2619 22.2176 15.4427 22.0289 15.5472L19.7979 16.7828C19.6749 17.0244 19.5392 17.2592 19.3912 17.4864L19.4341 20.0347C19.4378 20.2501 19.3486 20.4566 19.1894 20.6017C18.0812 21.6116 16.7696 22.3724 15.3428 22.833C15.1368 22.8994 14.9121 22.8737 14.7265 22.7623L12.5342 21.4469C12.2655 21.4589 11.9963 21.4589 11.7276 21.4469L9.54438 22.7534C9.3603 22.8636 9.13787 22.8896 8.93331 22.825C7.50059 22.3724 6.18336 21.6137 5.07282 20.6017C4.91361 20.4566 4.82447 20.25 4.82811 20.0347L4.87106 17.4921C4.72389 17.2624 4.58819 17.0255 4.46446 16.7824L2.24168 15.5466C2.05455 15.4425 1.92081 15.2635 1.87415 15.0545C1.54718 13.5901 1.54373 12.0719 1.86404 10.606C1.91009 10.3952 2.04467 10.2145 2.23338 10.11L4.46436 8.87438C4.58735 8.63281 4.72309 8.39796 4.87101 8.17081L4.82811 5.62247C4.82449 5.4071 4.91363 5.20056 5.07285 5.05548C6.18105 4.04563 7.49267 3.28482 8.91948 2.82423ZM6.33374 5.94422L6.37477 8.38159C6.37743 8.5395 6.33018 8.69421 6.23974 8.82368C6.03858 9.11169 5.86246 9.41641 5.71332 9.73449C5.64627 9.87748 5.53579 9.99566 5.39763 10.0722L3.26439 11.2537C3.07779 12.2954 3.08038 13.3623 3.27204 14.4032L5.3987 15.5856C5.53582 15.6618 5.64558 15.7791 5.71253 15.921C5.86494 16.244 6.04271 16.5544 6.24416 16.8493C6.33176 16.9775 6.3774 17.1297 6.37477 17.285L6.33376 19.7129C7.14442 20.3977 8.07145 20.9315 9.07068 21.2888L11.1554 20.0413C11.2874 19.9623 11.4405 19.9258 11.594 19.9368C11.9516 19.9623 12.3106 19.9623 12.6682 19.9368C12.822 19.9258 12.9754 19.9624 13.1076 20.0417L15.199 21.2966C16.195 20.9336 17.1191 20.3975 17.9285 19.713L17.8875 17.2756C17.8848 17.1177 17.9321 16.963 18.0225 16.8335C18.2237 16.5455 18.3998 16.2408 18.5489 15.9227C18.616 15.7797 18.7265 15.6615 18.8646 15.585L20.9979 14.4035C21.1845 13.3617 21.1819 12.2948 20.9902 11.254L18.8636 10.0716C18.7259 9.99505 18.6158 9.8771 18.5489 9.73449C18.3998 9.41641 18.2237 9.11169 18.0225 8.82368C17.9321 8.69421 17.8848 8.5395 17.8875 8.38159L17.9285 5.94432C17.1179 5.2595 16.1908 4.7257 15.1916 4.36837L13.1069 5.61591C12.9749 5.69492 12.8217 5.73141 12.6682 5.72043C12.3106 5.69485 11.9516 5.69485 11.594 5.72043C11.4402 5.73143 11.2868 5.69478 11.1546 5.61546L9.06322 4.36061C8.06725 4.7236 7.14319 5.25973 6.33374 5.94422Z" fill="#999999"/>
</svg>
