<svg width="24" height="25" viewBox="0 0 24 25" fill="none" xmlns="http://www.w3.org/2000/svg">
<path fill-rule="evenodd" clip-rule="evenodd" d="M3 6.07861C3.41421 6.07861 3.75 6.4144 3.75 6.82861V14.3286C3.75 14.7428 3.41421 15.0786 3 15.0786C2.58579 15.0786 2.25 14.7428 2.25 14.3286V6.82861C2.25 6.4144 2.58579 6.07861 3 6.07861Z" fill="#999999"/>
<path fill-rule="evenodd" clip-rule="evenodd" d="M12 18.0801C10.7507 18.0801 9.52121 18.3918 8.4228 18.9869C7.32439 19.582 6.3918 20.4417 5.70951 21.4882C5.48329 21.8352 5.01861 21.9331 4.67163 21.7069C4.32465 21.4807 4.22676 21.016 4.45299 20.669C5.27156 19.4135 6.39044 18.382 7.70826 17.668C9.02608 16.9541 10.5012 16.5801 12 16.5801C13.4988 16.5801 14.9739 16.9541 16.2917 17.668C17.6096 18.382 18.7284 19.4135 19.547 20.669C19.7732 21.016 19.6753 21.4807 19.3284 21.7069C18.9814 21.9331 18.5167 21.8352 18.2905 21.4882C17.6082 20.4417 16.6756 19.582 15.5772 18.9869C14.4788 18.3918 13.2493 18.0801 12 18.0801Z" fill="#999999"/>
<path fill-rule="evenodd" clip-rule="evenodd" d="M11.7628 3.1171C11.9168 3.06578 12.0832 3.06578 12.2372 3.1171L21.2372 6.1171C21.5434 6.21919 21.75 6.50579 21.75 6.82861C21.75 7.15144 21.5434 7.43804 21.2372 7.54013L12.2372 10.5401C12.0832 10.5914 11.9168 10.5914 11.7628 10.5401L2.76283 7.54013C2.45657 7.43804 2.25 7.15144 2.25 6.82861C2.25 6.50579 2.45657 6.21919 2.76283 6.1171L11.7628 3.1171ZM5.37171 6.82861L12 9.03804L18.6283 6.82861L12 4.61918L5.37171 6.82861Z" fill="#999999"/>
<path fill-rule="evenodd" clip-rule="evenodd" d="M8.63463 7.98173C8.94012 8.26147 8.96099 8.73588 8.68125 9.04137C8.09155 9.68533 7.70195 10.4869 7.55992 11.3485C7.4179 12.21 7.5296 13.0943 7.8814 13.8935C8.2332 14.6926 8.8099 15.3722 9.54121 15.8493C10.2725 16.3264 11.1268 16.5804 12 16.5804C12.8732 16.5804 13.7275 16.3264 14.4588 15.8493C15.1901 15.3722 15.7668 14.6926 16.1186 13.8935C16.4704 13.0943 16.5821 12.21 16.4401 11.3485C16.2981 10.487 15.9084 9.68533 15.3188 9.04137C15.039 8.73588 15.0599 8.26147 15.3654 7.98173C15.6708 7.70199 16.1453 7.72286 16.425 8.02835C17.2113 8.88697 17.7307 9.95579 17.9201 11.1045C18.1095 12.2532 17.9605 13.4323 17.4915 14.4978C17.0224 15.5634 16.2535 16.4694 15.2784 17.1056C14.3033 17.7417 13.1642 18.0804 12 18.0804C10.8358 18.0804 9.69668 17.7417 8.72161 17.1056C7.74653 16.4694 6.9776 15.5634 6.50853 14.4978C6.03946 13.4323 5.89053 12.2532 6.0799 11.1045C6.26926 9.95579 6.78874 8.88697 7.575 8.02835C7.85474 7.72286 8.32915 7.70199 8.63463 7.98173Z" fill="#999999"/>
</svg>
