<svg width="24" height="25" viewBox="0 0 24 25" fill="none" xmlns="http://www.w3.org/2000/svg">
<path fill-rule="evenodd" clip-rule="evenodd" d="M7.5 7.57861C5.84315 7.57861 4.5 8.92176 4.5 10.5786C4.5 12.2355 5.84315 13.5786 7.5 13.5786C9.15685 13.5786 10.5 12.2355 10.5 10.5786C10.5 8.92176 9.15685 7.57861 7.5 7.57861ZM3 10.5786C3 8.09333 5.01472 6.07861 7.5 6.07861C9.98528 6.07861 12 8.09333 12 10.5786C12 13.0639 9.98528 15.0786 7.5 15.0786C5.01472 15.0786 3 13.0639 3 10.5786Z" fill="#999999"/>
<path fill-rule="evenodd" clip-rule="evenodd" d="M13.5 8.32861C13.5 7.9144 13.8358 7.57861 14.25 7.57861H23.25C23.6642 7.57861 24 7.9144 24 8.32861C24 8.74283 23.6642 9.07861 23.25 9.07861H14.25C13.8358 9.07861 13.5 8.74283 13.5 8.32861Z" fill="#999999"/>
<path fill-rule="evenodd" clip-rule="evenodd" d="M13.5 12.8286C13.5 12.4144 13.8358 12.0786 14.25 12.0786H23.25C23.6642 12.0786 24 12.4144 24 12.8286C24 13.2428 23.6642 13.5786 23.25 13.5786H14.25C13.8358 13.5786 13.5 13.2428 13.5 12.8286Z" fill="#999999"/>
<path fill-rule="evenodd" clip-rule="evenodd" d="M15.75 17.3286C15.75 16.9144 16.0858 16.5786 16.5 16.5786H23.25C23.6642 16.5786 24 16.9144 24 17.3286C24 17.7428 23.6642 18.0786 23.25 18.0786H16.5C16.0858 18.0786 15.75 17.7428 15.75 17.3286Z" fill="#999999"/>
<path fill-rule="evenodd" clip-rule="evenodd" d="M7.5 15.0668C6.33428 15.0668 5.20171 15.4548 4.28084 16.1696C3.35998 16.8844 2.70321 17.8853 2.41406 19.0146C2.31132 19.4159 1.90274 19.6579 1.50147 19.5552C1.1002 19.4524 0.858196 19.0438 0.960937 18.6426C1.33269 17.1906 2.17712 15.9037 3.36109 14.9847C4.54505 14.0657 6.00121 13.5668 7.5 13.5668C8.99879 13.5668 10.4549 14.0657 11.6389 14.9847C12.8229 15.9037 13.6673 17.1906 14.0391 18.6426C14.1418 19.0438 13.8998 19.4524 13.4985 19.5552C13.0973 19.6579 12.6887 19.4159 12.5859 19.0146C12.2968 17.8853 11.64 16.8844 10.7192 16.1696C9.79829 15.4548 8.66572 15.0668 7.5 15.0668Z" fill="#999999"/>
</svg>
