<svg width="24" height="25" viewBox="0 0 24 25" fill="none" xmlns="http://www.w3.org/2000/svg">
<path fill-rule="evenodd" clip-rule="evenodd" d="M1.18934 6.14295C1.47064 5.86165 1.85217 5.70361 2.25 5.70361H14.25C15.2446 5.70361 16.1984 6.0987 16.9016 6.80196C17.6049 7.50522 18 8.45905 18 9.45361V18.4536C18 18.8514 17.842 19.233 17.5607 19.5143C17.2794 19.7956 16.8978 19.9536 16.5 19.9536H4.5C3.50544 19.9536 2.55161 19.5585 1.84835 18.8553C1.14509 18.152 0.75 17.1982 0.75 16.2036V7.20361C0.75 6.80579 0.908035 6.42426 1.18934 6.14295ZM2.25 7.20361V16.2036C2.25 16.8004 2.48705 17.3726 2.90901 17.7946C3.33097 18.2166 3.90326 18.4536 4.5 18.4536H16.5V9.45361C16.5 8.85688 16.2629 8.28458 15.841 7.86262C15.419 7.44067 14.8467 7.20361 14.25 7.20361L2.25 7.20361Z" fill="#999999"/>
<path fill-rule="evenodd" clip-rule="evenodd" d="M22.8764 7.67993C23.1077 7.81412 23.25 8.06126 23.25 8.32861V17.3286C23.25 17.596 23.1077 17.8431 22.8764 17.9773C22.6452 18.1115 22.36 18.1124 22.1279 17.9798L16.8779 14.9798C16.5183 14.7743 16.3933 14.3161 16.5988 13.9565C16.8043 13.5969 17.2625 13.4719 17.6221 13.6774L21.75 16.0362V9.621L17.6221 11.9798C17.2625 12.1853 16.8043 12.0604 16.5988 11.7007C16.3933 11.3411 16.5183 10.8829 16.8779 10.6774L22.1279 7.67743C22.36 7.54479 22.6452 7.54574 22.8764 7.67993Z" fill="#999999"/>
</svg>
