<svg width="24" height="25" viewBox="0 0 24 25" fill="none" xmlns="http://www.w3.org/2000/svg">
<path fill-rule="evenodd" clip-rule="evenodd" d="M4.96346 3.7432C5.0905 3.48912 5.3502 3.32861 5.63428 3.32861H19.1343C19.4184 3.32861 19.6781 3.48912 19.8051 3.7432L21.3051 6.7432C21.3572 6.84734 21.3843 6.96218 21.3843 7.07861V19.8286C21.3843 20.2264 21.2262 20.608 20.9449 20.8893C20.6636 21.1706 20.2821 21.3286 19.8843 21.3286H4.88428C4.48645 21.3286 4.10492 21.1706 3.82362 20.8893C3.54231 20.608 3.38428 20.2264 3.38428 19.8286V7.07861C3.38428 6.96218 3.41139 6.84734 3.46346 6.7432L4.96346 3.7432ZM6.0978 4.82861L4.88428 7.25566V19.8286H19.8843V7.25566L18.6708 4.82861H6.0978Z" fill="#999999"/>
<path fill-rule="evenodd" clip-rule="evenodd" d="M8.67585 13.8702C8.96874 13.5773 9.44361 13.5773 9.73651 13.8702L12.3843 16.518L15.0321 13.8702C15.325 13.5773 15.7999 13.5773 16.0928 13.8702C16.3856 14.1631 16.3856 14.6379 16.0928 14.9308L12.9146 18.109C12.6217 18.4019 12.1469 18.4019 11.854 18.109L8.67585 14.9308C8.38295 14.6379 8.38295 14.1631 8.67585 13.8702Z" fill="#999999"/>
<path fill-rule="evenodd" clip-rule="evenodd" d="M12.3843 9.32861C12.7985 9.32861 13.1343 9.6644 13.1343 10.0786V17.5786C13.1343 17.9928 12.7985 18.3286 12.3843 18.3286C11.9701 18.3286 11.6343 17.9928 11.6343 17.5786V10.0786C11.6343 9.6644 11.9701 9.32861 12.3843 9.32861Z" fill="#999999"/>
<path fill-rule="evenodd" clip-rule="evenodd" d="M3.38428 7.07861C3.38428 6.6644 3.72006 6.32861 4.13428 6.32861H20.6343C21.0485 6.32861 21.3843 6.6644 21.3843 7.07861C21.3843 7.49283 21.0485 7.82861 20.6343 7.82861H4.13428C3.72006 7.82861 3.38428 7.49283 3.38428 7.07861Z" fill="#999999"/>
</svg>
